<svg xmlns="http://www.w3.org/2000/svg" viewBox="0 0 512 512"><defs><style>.a{fill:#00e1c8;}.b{fill:#96aab9;}.c{fill:#d2e1f0;}</style></defs><title>Global Runtime Logo</title><circle class="a" cx="23.3" cy="258.32" r="14.98"/><path class="b" d="M491.38,284.1a13.67,13.67,0,0,0-15.77,11.22A220.48,220.48,0,0,1,423.36,405a1.42,1.42,0,0,1-1.83.25,218.73,218.73,0,0,0-45.9-21.76l-1.28-.44a1.43,1.43,0,0,1-.91-1.82c.64-1.89,1.27-3.91,1.89-6a1.44,1.44,0,0,0-2.4-1.41,166.64,166.64,0,0,1-35.22,26.7l.46.1c-16,33-37,57.07-60.1,69.71a1.43,1.43,0,0,1-2.11-1.26V422.41a1.43,1.43,0,0,0-1.59-1.42A166.32,166.32,0,0,1,256,422q-6,0-12-.42a1.42,1.42,0,0,0-1.53,1.42v46.07a1.43,1.43,0,0,1-2.1,1.26c-22-12-42.12-34.45-57.82-65.08a1.42,1.42,0,0,0-.63-.63,166.75,166.75,0,0,1-46-33.92,1.43,1.43,0,0,0-2.41,1.41q1.57,5.05,3.31,10a1.42,1.42,0,0,1-.9,1.83l-1.34.46a222.29,222.29,0,0,0-46.76,22.18,1.42,1.42,0,0,1-1.83-.25A224.49,224.49,0,0,1,32.92,295.09c-1-6-5.46-11.14-11.48-12a14,14,0,0,0-16.1,16.11A253.53,253.53,0,0,0,252.2,511a1.44,1.44,0,0,0,1.46-1.44v-3.17a1.43,1.43,0,0,1,1.43-1.43h2.72a1.43,1.43,0,0,1,1.43,1.43,1.45,1.45,0,0,0,1.44,1.44h0a249.17,249.17,0,0,0,241.91-208A13.68,13.68,0,0,0,491.38,284.1ZM190.7,470a220.6,220.6,0,0,1-76.46-42.87,1.43,1.43,0,0,1,.21-2.32,201,201,0,0,1,34.26-15.4c.9-.32,1.82-.63,2.73-.93a1.46,1.46,0,0,1,1.75.76c10.88,23.21,24.11,42.86,39,58.39A1.44,1.44,0,0,1,190.7,470Zm210.39-42.87A220.44,220.44,0,0,1,324.61,470a1.44,1.44,0,0,1-1.47-2.37c14.88-15.53,28.13-35.19,39-58.4a1.41,1.41,0,0,1,1.72-.75c.91.3,1.84.61,2.75.93a202.31,202.31,0,0,1,34.25,15.4A1.43,1.43,0,0,1,401.09,427.09Z"/><path class="a" d="M464.65,262.39c-2.06,5.27-7.56,8.41-13.22,8.41H422.9a1.42,1.42,0,0,1-1.42-1.54q.51-6.57.52-13.26c0-3.88-.13-7.74-.4-11.55a1.43,1.43,0,0,1,1.42-1.53h28.75A14,14,0,0,1,464.65,262.39Z"/><path class="a" d="M90.52,269.26a1.42,1.42,0,0,1-1.42,1.54H55.54a14,14,0,0,1-12.91-19.41c2-5.31,7.54-8.47,13.22-8.47H89a1.43,1.43,0,0,1,1.42,1.53c-.27,3.81-.4,7.67-.4,11.55Q90,262.69,90.52,269.26Z"/><path class="c" d="M502.13,215.62a253.64,253.64,0,0,0-248.47-213h0A253.67,253.67,0,0,0,5.18,215.62a14,14,0,0,0,11.51,16,15.85,15.85,0,0,0,2.26.17,14,14,0,0,0,13.76-11.7,224.11,224.11,0,0,1,55.41-115,1.4,1.4,0,0,1,1.78-.25,227.57,227.57,0,0,0,46.18,21.42l1,.34a1.42,1.42,0,0,1,.89,1.84c-1.26,3.5-2.48,7-3.63,10.64a1.43,1.43,0,0,0,2.4,1.43,166.19,166.19,0,0,1,48.47-34.71,1.4,1.4,0,0,0,.64-.61c15.16-27.42,34-47.64,54.53-58.87a1.44,1.44,0,0,1,2.11,1.27V89A1.42,1.42,0,0,0,244,90.42Q250,90,256,90a166.31,166.31,0,0,1,18.37,1A1.43,1.43,0,0,0,276,89.59v-42a1.44,1.44,0,0,1,2.14-1.24C299.68,58.18,319.49,80,335,109.72a1.43,1.43,0,0,0,.58.59,165.41,165.41,0,0,1,32.73,23.49,1.44,1.44,0,0,0,2.34-1.52c-.45-1.29-.9-2.57-1.37-3.85a1.42,1.42,0,0,1,.9-1.83l1-.34a227.32,227.32,0,0,0,46.18-21.42,1.4,1.4,0,0,1,1.78.25,224.22,224.22,0,0,1,55.43,115,13.94,13.94,0,0,0,13.75,11.7,16,16,0,0,0,2.26-.17A14,14,0,0,0,502.13,215.62ZM191.66,49.23c-14,14.75-26.47,33.28-37,55.19a1.43,1.43,0,0,1-1.73.75c-1-.32-1.94-.63-2.91-1a209.13,209.13,0,0,1-33-14.42,1.43,1.43,0,0,1-.22-2.34,220.41,220.41,0,0,1,73.43-40.57A1.43,1.43,0,0,1,191.66,49.23ZM398.35,89.79a208.32,208.32,0,0,1-33,14.42c-1,.33-1.92.64-2.89,1a1.44,1.44,0,0,1-1.74-.76c-10.57-21.92-23.09-40.43-37-55.18a1.43,1.43,0,0,1,1.48-2.35,220.32,220.32,0,0,1,73.41,40.57A1.43,1.43,0,0,1,398.35,89.79Z"/><circle class="a" cx="492.02" cy="258.32" r="14.98"/><path class="c" d="M259.5,311.89a55.91,55.91,0,0,1-48.45-28l-32.9,19a3.89,3.89,0,0,0-1.34,5.45,97.91,97.91,0,0,0,167.46-3.46l-33.09-19.1A3.88,3.88,0,0,0,306,287a55.88,55.88,0,0,1-46.53,24.88ZM377.19,188a3.89,3.89,0,0,0,1.36-5.41A139.87,139.87,0,0,0,138.38,186l33,19.08a3.88,3.88,0,0,0,5.23-1.29A97.91,97.91,0,0,1,344.28,207Z"/><path class="b" d="M259.5,353.84a97.81,97.81,0,0,1-82.68-45.47,3.89,3.89,0,0,1,1.34-5.45l32.9-19a55.94,55.94,0,0,1,95-59,3.88,3.88,0,0,0,5.17,1.21L344.28,207a97.91,97.91,0,0,0-167.63-3.2,3.88,3.88,0,0,1-5.23,1.29l-33-19.08A139.85,139.85,0,0,0,378.56,329.32a3.89,3.89,0,0,0-1.36-5.41l-32.92-19A97.84,97.84,0,0,1,259.5,353.84Z"/><path class="a" d="M377.32,271V240.92l-26,15,26,15ZM332,249.23l49.35-28.49A7.78,7.78,0,0,1,393,227.47v57a7.78,7.78,0,0,1-11.65,6.73L332,262.69A7.78,7.78,0,0,1,332,249.23Z"/></svg>